<svg xmlns="http://www.w3.org/2000/svg" width="960" height="576" viewBox="0 0 960 576"><path d="M914.178 45.822C868.356 0 798.2 0 672 0H288C161.8 0 91.644 0 45.822 45.822S0 161.8 0 288s0 196.356 45.822 242.178S161.8 576 288 576h384c126.2 0 196.356 0 242.178-45.822S960 414.2 960 288s0-196.356-45.822-242.178zm-61.117 456.13H453.49v-35.93h6.467c21.982 0 36.25-4.052 42.832-12.135 6.58-8.103 9.85-21.963 9.85-41.607V152.67c0-20.075-3.45-34.04-10.347-41.915-6.896-7.886-21.01-11.826-42.346-11.826h-6.466c-23.49 0-39.12 3.56-46.88 10.68s-11.637 21.48-11.637 43.053v169.34c0 45.104-4.57 80.17-13.738 105.203-9.17 25.033-27.644 45.59-55.44 61.684-27.805 16.06-62.824 24.1-105.065 24.1-34.482 0-62.395-5.88-83.725-17.627-21.337-11.773-32-27.687-32-47.757 0-14.244 5.615-25.688 16.81-34.314 11.207-8.632 24.46-12.948 39.766-12.948 14.867 0 26.726 3.552 35.556 10.68 8.85 7.115 13.26 16.833 13.26 29.13 0 3.674-.86 8.422-2.582 14.242-1.078 3.453-1.62 6.043-1.62 7.77 0 9.927 8.19 14.896 24.57 14.896 18.324 0 31.206-8.096 38.632-24.28 7.443-16.187 11.157-49.853 11.157-101V152.67c0-20.076-3.4-34.042-10.18-41.916-6.797-7.886-20.966-11.826-42.518-11.826h-33.39V63h494.05v35.93h-8.728c-21.982 0-36.262 4.057-42.826 12.14-6.59 8.103-9.863 21.97-9.863 41.602v250.545c0 18.78 1.07 31.2 3.227 37.23 2.16 6.042 7.81 11.283 16.986 15.698 9.15 4.433 25.154 6.634 48 6.634 38.36 0 67.024-9.66 85.99-28.97 18.966-19.318 31.896-45.277 38.793-77.857H855l-1.94 145.99z"/></svg>