<svg xmlns="http://www.w3.org/2000/svg" width="1024" height="1024" viewBox="0 0 1024 1024"><path d="M512.008 0C229.27 0 0 229.22 0 511.998 0 738.212 146.704 930.13 350.136 997.835c25.586 4.737 34.992-11.11 34.992-24.633 0-12.204-.48-52.542-.696-95.324-142.448 30.977-172.504-60.41-172.504-60.41-23.282-59.176-56.848-74.915-56.848-74.915-46.452-31.778 3.51-31.124 3.51-31.124 51.4 3.608 78.476 52.765 78.476 52.765 45.672 78.27 119.776 55.64 149.005 42.558 4.59-33.086 17.853-55.68 32.507-68.464C304.847 725.346 185.3 681.437 185.3 485.256c0-55.898 20.004-101.574 52.76-137.43-5.315-12.898-22.854-64.97 4.952-135.5 0 0 43.006-13.75 140.84 52.49 40.836-11.347 84.637-17.035 128.154-17.233 43.502.198 87.336 5.887 128.256 17.234 97.734-66.244 140.656-52.49 140.656-52.49 27.87 70.528 10.35 122.6 5.035 135.5 32.82 35.856 52.695 81.532 52.695 137.43 0 196.652-119.78 239.948-233.79 252.622 18.363 15.89 34.724 47.047 34.724 94.812 0 68.508-.596 123.645-.596 140.508 0 13.628 9.222 29.594 35.172 24.566C877.48 929.99 1024 738.14 1024 511.998 1024 229.218 794.766 0 512.008 0z"/></svg>