<svg xmlns="http://www.w3.org/2000/svg" width="1024" height="1024" viewBox="0 0 1024 1024"><path d="M437.006 818.162c0 75.068-46.39 134.392-177.758 139.176-76.984-43.786-141.49-106.952-186.908-182.866 23.69-58.496 97.692-103.046 182.316-102.113 24.022.25 46.41 4.112 66.744 10.698 55.907 38.866 101 63.152 112.323 107.448 2.115 8.964 3.283 18.206 3.283 27.656zM512 0C364.06 0 230.804 62.77 137.334 163.098c36.934-20.45 80.538-32.638 126.902-32.638h256.438L463.37 190.6h-67.31c47.496 27.213 72.753 83.248 72.753 145.013 0 56.69-31.416 102.38-75.78 137.058-43.28 33.803-51.492 47.967-51.492 76.735 0 24.542 51.723 61.098 75.5 78.936 82.82 62.113 99.58 101.186 99.58 178.87 0 78.727-68.938 157.105-185.867 183.743C387.1 1012.29 448.178 1024 512 1024c282.77 0 512-229.23 512-512S794.77 0 512 0zm256 384v128h-64V384H576v-64h128V192h64v128h128v64H768zm-402.232-44.528c11.923 90.776-27.846 149.19-96.934 147.134-69.126-2.08-134.806-65.49-146.74-156.24-11.928-90.79 34.418-160.255 103.53-158.197 69.09 2.072 128.22 76.54 140.144 167.302zM220.886 642.068c-74.68 0-138.128 25.768-182.842 63.863C13.542 646.113 0 580.643 0 512c0-56.766 9.256-111.368 26.312-162.396 7.374 99.442 77.352 176.192 192.97 176.192 8.514 0 16.764-.442 24.874-1.02-7.95 15.228-13.622 32.188-13.622 49.98 0 29.97 16.488 47.07 36.868 66.895-15.402 0-30.27.418-46.516.418z"/></svg>