<svg xmlns="http://www.w3.org/2000/svg" width="1024" height="1024" viewBox="0 0 1024 1024"><path d="M512 0C229.23 0 0 229.23 0 512s229.23 512 512 512 512-229.23 512-512S794.77 0 512 0zM365.714 768c-141.535 0-256-114.465-256-256 0-141.536 114.465-256 256-256 69.124 0 126.893 25.214 171.52 66.93l-69.483 66.928c-19.018-18.286-52.302-39.5-102.035-39.5C278.303 350.355 207 422.784 207 512c0 89.248 71.303 161.536 158.714 161.536C467.018 673.536 505.054 601 510.91 563H366v-88h241.43c2.213 13 4.068 25.82 4.068 42.643C611.498 663.928 513.465 768 365.714 768zM841 549v73h-73v-73h-73v-74h73v-73h73v73h73v74h-73z"/></svg>
