<svg xmlns="http://www.w3.org/2000/svg" width="1024" height="1024" viewBox="0 0 1024 1024"><path d="M512 0C229.23 0 0 229.23 0 512s229.23 512 512 512 512-229.23 512-512S794.77 0 512 0zm329.143 585.143V731.43H694.857V585.142H535.77c-29.988 85.21-111.214 146.286-206.63 146.286-121.05 0-219.428-98.342-219.428-219.43s98.377-219.43 219.43-219.43c95.414 0 176.64 61.074 206.63 146.287h378.513v146.285h-73.142zm-512-146.286C288.913 438.857 256 471.77 256 512s32.914 73.143 73.143 73.143c40.23 0 73.144-32.914 73.144-73.143s-32.915-73.143-73.144-73.143z"/></svg>