<svg xmlns="http://www.w3.org/2000/svg" width="1024" height="1024" viewBox="0 0 1024 1024"><path d="M512 0C229.228 0 0 229.23 0 512s229.228 512 512 512c282.773 0 512-229.227 512-512S794.773 0 512 0zM386.667 724.214h-103.68V390.562h103.68v333.652zM334.187 349.6c-32.746 0-53.92-23.198-53.92-51.892 0-29.28 21.813-51.788 55.254-51.788 33.44 0 53.92 22.507 54.56 51.788 0 28.693-21.12 51.893-55.893 51.893zm431.147 374.614h-103.68V539.31c0-43.04-15.04-72.27-52.534-72.27-28.64 0-45.653 19.788-53.173 38.828-2.772 6.772-3.467 16.374-3.467 25.92v192.373H448.747v-227.2c0-41.65-1.333-76.48-2.72-106.45h90.08l4.747 46.345h2.08c13.653-21.76 47.094-53.866 103.04-53.866 68.213 0 119.36 45.705 119.36 143.946v197.278z"/></svg>