<svg xmlns="http://www.w3.org/2000/svg" width="1024" height="1024" viewBox="0 0 1024 1024"><path d="M512 0C229.23 0 0 229.23 0 512s229.23 512 512 512 512-229.23 512-512S794.77 0 512 0zM256 256h512c9.138 0 18.004 1.962 26.144 5.662L512 590.83 229.856 261.66c8.14-3.696 17.006-5.66 26.144-5.66zm-64 448V320c0-1.34.056-2.672.14-4l187.664 218.942L194.206 720.54C192.762 715.204 192 709.654 192 704zm576 64H256c-5.654 0-11.202-.762-16.54-2.208l182.118-182.118L512 689.172l90.424-105.494 182.116 182.12C779.2 767.238 773.654 768 768 768zm64-64c0 5.654-.762 11.2-2.206 16.54l-185.6-185.598L831.86 316c.084 1.328.14 2.66.14 4v384z"/></svg>