<svg xmlns="http://www.w3.org/2000/svg" width="1024" height="1024" viewBox="0 0 1024 1024"><path d="M512 0C229.23 0 0 229.23 0 512s229.23 512 512 512 512-229.23 512-512S794.77 0 512 0zm254.48 381.48c.25 5.632.38 11.296.38 16.987 0 173.51-132.07 373.588-373.585 373.588-74.15 0-143.168-21.737-201.276-58.996 10.27 1.218 20.723 1.84 31.32 1.84 61.52 0 118.135-20.992 163.073-56.21-57.458-1.055-105.948-39.02-122.658-91.185 8.018 1.532 16.244 2.36 24.704 2.36 11.975 0 23.577-1.61 34.59-4.61-60.063-12.066-105.325-65.132-105.325-128.75 0-.554 0-1.104.012-1.652 17.7 9.834 37.948 15.742 59.47 16.425-35.232-23.546-58.414-63.736-58.414-109.292 0-24.064 6.476-46.62 17.78-66.01 64.76 79.44 161.51 131.71 270.634 137.19-2.238-9.613-3.4-19.633-3.4-29.925 0-72.51 58.792-131.297 131.304-131.297 37.768 0 71.894 15.943 95.843 41.462 29.908-5.887 58.01-16.814 83.38-31.862-9.804 30.662-30.623 56.394-57.73 72.644 26.56-3.174 51.865-10.23 75.41-20.674-17.595 26.33-39.855 49.455-65.514 67.967z"/></svg>