<svg xmlns="http://www.w3.org/2000/svg" width="960" height="576" viewBox="0 0 960 576"><path d="M914.178 45.822C868.356 0 798.2 0 672 0H288C161.8 0 91.644 0 45.822 45.822S0 161.8 0 288s0 196.356 45.822 242.178S161.8 576 288 576h384c126.2 0 196.356 0 242.178-45.822S960 414.2 960 288s0-196.356-45.822-242.178zm-61.117 456.13H453.49v-35.93h6.467c21.982 0 36.25-4.052 42.832-12.135 6.582-8.103 9.857-21.963 9.857-41.607V152.67c0-20.075-3.448-34.04-10.345-41.915-6.896-7.886-21.01-11.826-42.346-11.826h-6.466c-23.49 0-39.12 3.562-46.878 10.685s-11.638 21.48-11.638 43.057v169.34c0 45.104-4.57 80.17-13.738 105.203-9.17 25.033-27.642 45.59-55.438 61.684-27.805 16.06-62.824 24.1-105.065 24.1-34.483 0-62.396-5.882-83.726-17.628C115.665 483.595 105 467.682 105 447.61c0-14.243 5.616-25.687 16.81-34.313 11.208-8.632 24.46-12.948 39.767-12.948 14.865 0 26.724 3.557 35.554 10.685 8.844 7.115 13.26 16.833 13.26 29.128 0 3.675-.863 8.423-2.587 14.243-1.078 3.453-1.62 6.043-1.62 7.77 0 9.927 8.19 14.896 24.57 14.896 18.324 0 31.206-8.096 38.632-24.28 7.444-16.187 11.158-49.853 11.158-101v-199.12c0-20.077-3.4-34.043-10.18-41.917-6.797-7.886-20.966-11.826-42.518-11.826h-33.387V63H688.51v35.93h-8.726c-21.982 0-36.262 4.057-42.826 12.14-6.59 8.103-9.864 21.97-9.864 41.602v250.545c0 18.78 1.07 31.2 3.227 37.23 2.156 6.042 7.81 11.283 16.983 15.698 9.15 4.433 25.154 6.634 48 6.634 38.36 0 67.024-9.656 85.99-28.962 18.966-19.317 31.896-45.276 38.793-77.856H855l-1.94 145.99z"/></svg>